<svg width="125" height="16" viewBox="0 0 125 16" fill="none" xmlns="http://www.w3.org/2000/svg">
<path d="M69.1427 6.15234L64.8912 9.67432L66.1419 15.3983L62.011 11.9403L57.614 15.2144L59.3128 9.55432L55.3467 5.85437L60.5271 5.81433L62.4738 0.253418L63.977 5.8894L69.1427 6.15234Z" fill="#FFC600"/>
<path d="M41.6917 6.15234L37.4403 9.67432L38.6911 15.3983L34.5601 11.9403L30.1631 15.2144L31.8618 9.55432L27.8958 5.85437L33.0762 5.81433L35.0229 0.253418L36.5261 5.8894L41.6917 6.15234Z" fill="#FFC600"/>
<path d="M14.2428 6.15234L9.9913 9.67432L11.242 15.3983L7.1111 11.9403L2.71407 15.2144L4.41286 9.55432L0.446777 5.85437L5.62724 5.81433L7.5739 0.253418L9.07709 5.8894L14.2428 6.15234Z" fill="#FFC600"/>
<path d="M96.5921 6.15234L92.3407 9.67432L93.5914 15.3983L89.4605 11.9403L85.0635 15.2144L86.7623 9.55432L82.7961 5.85437L87.9766 5.81433L89.9233 0.253418L91.4265 5.8894L96.5921 6.15234Z" fill="#FFC600"/>
<path d="M124.043 6.15234L119.792 9.67432L121.043 15.3983L116.912 11.9403L112.515 15.2144L114.213 9.55432L110.247 5.85437L115.428 5.81433L117.374 0.253418L118.878 5.8894L124.043 6.15234Z" fill="#C1C8CE"/>
</svg>
